<?xml version="1.0" encoding="iso-8859-1"?>
<!-- Generator: Adobe Illustrator 19.1.0, SVG Export Plug-In . SVG Version: 6.00 Build 0)  -->
<svg version="1.1" id="Capa_1" xmlns="http://www.w3.org/2000/svg" xmlns:xlink="http://www.w3.org/1999/xlink" x="0px" y="0px"
	 viewBox="0 0 63.677 63.677" style="enable-background:new 0 0 63.677 63.677;" xml:space="preserve">
<g>
	<g id="group-26svg">
		<path id="path-1_18_" style="fill:blue;" d="M60.922,60.999H46c-0.829,0-1.5-0.671-1.5-1.5c0-0.828,0.671-1.5,1.5-1.5h14.02
			C60.008,57.838,60,57.674,60,57.512V42.999c0-0.828,0.671-1.5,1.5-1.5s1.5,0.672,1.5,1.5v14.513c0,0.184,0.02,0.368,0.037,0.543
			c0.064,0.659,0.15,1.563-0.501,2.279C62.261,60.638,61.757,60.999,60.922,60.999z"/>
		<path id="path-2_17_" style="fill:blue;" d="M62.177,59.953c-0.384,0-0.768-0.147-1.061-0.44L42.94,41.338
			c-0.586-0.586-0.586-1.535,0-2.121c0.586-0.586,1.535-0.586,2.121,0l18.176,18.176c0.586,0.586,0.586,1.535,0,2.121
			C62.944,59.806,62.561,59.953,62.177,59.953z"/>
		<path id="path-3_3_" style="fill:blue;" d="M19,60.999H5.305C4.217,60.999,0,59.917,0,57.512V42.999c0-0.828,0.671-1.5,1.5-1.5
			s1.5,0.672,1.5,1.5v14.155c0.505,0.368,1.821,0.842,2.306,0.845H19c0.829,0,1.5,0.672,1.5,1.5
			C20.5,60.327,19.829,60.999,19,60.999z"/>
		<path id="path-4_2_" style="fill:blue;" d="M4.05,59.953c-0.384,0-0.767-0.147-1.06-0.44c-0.586-0.586-0.586-1.535,0-2.121
			l18.176-18.176c0.586-0.586,1.535-0.586,2.121,0c0.586,0.586,0.586,1.535,0,2.121L5.111,59.514
			C4.818,59.806,4.434,59.953,4.05,59.953z"/>
		<path id="path-5_2_" style="fill:blue;" d="M1.5,20.499c-0.829,0-1.5-0.671-1.5-1.5V5.12c0-0.557,0.222-1.075,0.624-1.456
			c0.887-0.839,2.327-0.76,3.599-0.69c0.228,0.013,0.435,0.025,0.598,0.025H19c0.829,0,1.5,0.672,1.5,1.5c0,0.829-0.671,1.5-1.5,1.5
			H4.821c-0.208,0-0.472-0.013-0.762-0.029C3.796,5.955,3.36,5.927,3,5.936v13.063C3,19.828,2.329,20.499,1.5,20.499z"/>
		<path id="path-6_2_" style="fill:blue;" d="M21.743,23.854c-0.384,0-0.768-0.147-1.061-0.44L2.506,5.239
			c-0.586-0.586-0.586-1.535,0-2.121s1.535-0.586,2.121,0l18.176,18.176c0.586,0.586,0.586,1.536,0,2.121
			C22.51,23.708,22.126,23.854,21.743,23.854z"/>
		<path id="path-7_1_" style="fill:blue;" d="M61.5,20.499c-0.829,0-1.5-0.671-1.5-1.5v-13H46c-0.829,0-1.5-0.671-1.5-1.5
			c0-0.828,0.671-1.5,1.5-1.5h14.438c0.176,0,0.31-0.018,0.412-0.031c0.314-0.042,0.973-0.125,1.548,0.384
			C63,3.882,63,4.597,63,5.12v13.879C63,19.828,62.329,20.499,61.5,20.499z"/>
		<path id="path-8_1_" style="fill:blue;" d="M43.517,23.854c-0.384,0-0.768-0.147-1.061-0.44c-0.586-0.585-0.586-1.535,0-2.121
			L60.632,3.118c0.586-0.586,1.535-0.586,2.121,0c0.586,0.586,0.586,1.535,0,2.121L44.577,23.415
			C44.284,23.708,43.9,23.854,43.517,23.854z"/>
	</g>
</g>
<g>
</g>
<g>
</g>
<g>
</g>
<g>
</g>
<g>
</g>
<g>
</g>
<g>
</g>
<g>
</g>
<g>
</g>
<g>
</g>
<g>
</g>
<g>
</g>
<g>
</g>
<g>
</g>
<g>
</g>
</svg>
